<svg viewBox="0 0 147 42" fill="currentColor" xmlns="http://www.w3.org/2000/svg" class="h-[5vw] max-h-[36px] text-gray-1000"><path d="M11.9627 23.7035C13.0835 23.7035 14.177 23.33 15.0609 22.6465L7.9534 15.5391C6.24032 17.7533 6.65037 20.9426 8.86462 22.6557C9.75761 23.33 10.842 23.7035 11.9627 23.7035Z" fill="currentColor"></path><path d="M33.1032 18.6294C33.1032 17.5086 32.7296 16.4151 32.0462 15.5312L24.9387 22.6387C27.153 24.3518 30.3331 23.9418 32.0462 21.7275C32.7296 20.8436 33.1032 19.7502 33.1032 18.6294Z" fill="currentColor"></path><path d="M36.6843 10.8926L33.5407 14.0363C36.0738 17.0706 35.6729 21.5902 32.6385 24.1234C29.9778 26.3468 26.1142 26.3468 23.4535 24.1234L20 27.5769L16.5556 24.1325C13.5213 26.6657 9.00163 26.2648 6.46846 23.2304C4.24509 20.5697 4.24509 16.7061 6.46846 14.0454L4.85561 12.4325L3.32477 10.8926C1.475 13.936 0.5 17.4351 0.5 20.998C0.5 31.7685 9.22944 40.498 20 40.498C30.7706 40.498 39.5 31.7685 39.5 20.998C39.5091 17.4351 38.525 13.936 36.6843 10.8926Z" fill="currentColor"></path><path d="M34.1056 7.54005C26.6792 -0.250835 14.3414 -0.542424 6.55048 6.88398C6.32268 7.10267 6.10399 7.32136 5.89441 7.54005C5.41147 8.05033 4.95586 8.57884 4.52759 9.13468L20 24.6162L35.4724 9.13468C35.0533 8.57884 34.5886 8.05033 34.1056 7.54005ZM20 4.0501C24.5561 4.0501 28.8024 5.80874 31.9916 9.01622L20 21.0078L8.00843 9.01622C11.1977 5.80874 15.4439 4.0501 20 4.0501Z" fill="currentColor"></path><path d="M67.976 22.7256C63.332 22.7256 58.688 22.6536 56.96 22.6536C56.924 18.9456 56.96 14.8056 56.96 10.5936C59.66 10.5216 65.888 10.4856 68.228 10.4856C74.168 10.4856 76.76 12.1056 76.76 16.6776C76.76 21.1416 74.24 22.7256 67.976 22.7256ZM52.568 7.10156C52.676 10.7736 52.712 14.8776 52.712 20.6016C52.712 26.3616 52.676 30.2136 52.568 34.1016H57.212C57.068 31.9776 56.996 29.2056 56.96 26.0376C62.648 26.1456 64.952 26.1456 68.84 26.1456C76.616 26.1456 80.972 23.4816 80.972 16.6056C80.972 9.47756 76.616 7.10156 68.984 7.10156H52.568Z" fill="currentColor"></path><path d="M107.615 25.6776C107.615 29.0256 104.267 31.7256 97.0308 31.7256C91.6668 31.7256 89.7228 30.4296 89.7228 27.9816C89.7228 25.4256 92.0988 24.2376 97.9668 24.2376C101.459 24.2376 104.735 24.4176 107.615 24.7416V25.6776ZM107.723 29.5656C107.687 30.7176 107.651 31.9056 107.651 32.8776C107.651 33.9216 107.903 34.1016 108.767 34.1016H112.151C111.791 32.8776 111.647 30.2136 111.647 27.6576C111.647 25.0296 111.755 23.0136 111.755 20.5656C111.755 15.6336 108.767 12.1776 99.1548 12.1776C90.2988 12.1776 86.6628 15.0936 86.7348 20.5656C87.2748 20.4936 87.9948 20.4936 88.7148 20.4936C89.4348 20.4936 90.0828 20.4936 90.5868 20.5296C90.4788 17.0016 92.6748 15.1656 99.1188 15.1656C105.923 15.1656 107.687 17.3256 107.687 20.7816C107.687 21.3936 107.687 22.1496 107.651 22.9416C105.383 22.5096 101.819 22.2216 97.4268 22.2216C89.2548 22.2216 85.7628 24.2016 85.7628 28.4496C85.7628 32.6976 88.9668 34.6056 95.6628 34.6056C101.963 34.6056 106.067 32.7336 107.507 29.5296L107.723 29.5656Z" fill="currentColor"></path><path d="M140.956 12.6816C139.768 15.0936 136.672 20.2056 134.548 24.1296C132.928 27.1176 131.848 29.1696 131.02 30.6456H130.768C130.048 29.1696 129.004 27.0456 127.492 24.3096C125.368 20.3496 121.552 14.4816 120.724 12.6816H115.72C119.176 17.9736 125.188 28.5216 127.816 32.5536C128.356 32.5176 129.04 32.5176 129.76 32.5176L129.652 32.7336C127.78 35.7216 126.052 36.5496 123.28 36.5496C120.76 36.5496 118.78 35.8296 116.872 34.6416C116.728 35.4336 116.044 37.4496 115.756 38.1336C117.88 39.2136 120.148 39.9336 122.956 39.9336C128.356 39.9336 130.552 37.9176 134.116 32.3736C137.176 27.8376 142.792 17.4696 145.744 12.6816H140.956Z" fill="currentColor"></path></svg>