<svg width="63" height="38" viewBox="0 0 63 38" fill="none" xmlns="http://www.w3.org/2000/svg">
<path d="M18.657 9.63636V3.63636H19.4865V4.34375H19.5575C19.6068 4.25284 19.6778 4.14773 19.7706 4.02841C19.8634 3.90909 19.9922 3.80492 20.157 3.71591C20.3217 3.625 20.5395 3.57955 20.8104 3.57955C21.1626 3.57955 21.477 3.66856 21.7536 3.84659C22.0301 4.02462 22.2469 4.28125 22.4041 4.61648C22.5632 4.9517 22.6428 5.35511 22.6428 5.8267C22.6428 6.2983 22.5642 6.70265 22.407 7.03977C22.2498 7.375 22.0339 7.63352 21.7592 7.81534C21.4846 7.99527 21.1712 8.08523 20.8189 8.08523C20.5537 8.08523 20.3369 8.04072 20.1683 7.9517C20.0017 7.86269 19.871 7.75852 19.7763 7.6392C19.6816 7.51989 19.6087 7.41383 19.5575 7.32102H19.5064V9.63636H18.657ZM19.4893 5.81818C19.4893 6.125 19.5339 6.39394 19.6229 6.625C19.7119 6.85606 19.8407 7.03693 20.0092 7.16761C20.1778 7.2964 20.3842 7.3608 20.6286 7.3608C20.8823 7.3608 21.0945 7.29356 21.2649 7.15909C21.4354 7.02273 21.5642 6.83807 21.6513 6.60511C21.7403 6.37216 21.7848 6.10985 21.7848 5.81818C21.7848 5.5303 21.7412 5.27178 21.6541 5.04261C21.5689 4.81345 21.4401 4.63258 21.2678 4.5C21.0973 4.36742 20.8842 4.30114 20.6286 4.30114C20.3823 4.30114 20.174 4.36458 20.0036 4.49148C19.835 4.61837 19.7071 4.79545 19.62 5.02273C19.5329 5.25 19.4893 5.51515 19.4893 5.81818ZM25.4325 8.08807C25.0234 8.08807 24.6664 7.99432 24.3615 7.80682C24.0566 7.61932 23.8198 7.35701 23.6513 7.01989C23.4827 6.68277 23.3984 6.28883 23.3984 5.83807C23.3984 5.38542 23.4827 4.98958 23.6513 4.65057C23.8198 4.31155 24.0566 4.0483 24.3615 3.8608C24.6664 3.6733 25.0234 3.57955 25.4325 3.57955C25.8416 3.57955 26.1986 3.6733 26.5036 3.8608C26.8085 4.0483 27.0452 4.31155 27.2138 4.65057C27.3823 4.98958 27.4666 5.38542 27.4666 5.83807C27.4666 6.28883 27.3823 6.68277 27.2138 7.01989C27.0452 7.35701 26.8085 7.61932 26.5036 7.80682C26.1986 7.99432 25.8416 8.08807 25.4325 8.08807ZM25.4354 7.375C25.7005 7.375 25.9202 7.30492 26.0945 7.16477C26.2687 7.02462 26.3975 6.83807 26.4808 6.60511C26.5661 6.37216 26.6087 6.11553 26.6087 5.83523C26.6087 5.55682 26.5661 5.30114 26.4808 5.06818C26.3975 4.83333 26.2687 4.64489 26.0945 4.50284C25.9202 4.3608 25.7005 4.28977 25.4354 4.28977C25.1683 4.28977 24.9467 4.3608 24.7706 4.50284C24.5964 4.64489 24.4666 4.83333 24.3814 5.06818C24.2981 5.30114 24.2564 5.55682 24.2564 5.83523C24.2564 6.11553 24.2981 6.37216 24.3814 6.60511C24.4666 6.83807 24.5964 7.02462 24.7706 7.16477C24.9467 7.30492 25.1683 7.375 25.4354 7.375ZM29.228 8L27.9439 3.63636H28.8217L29.6768 6.84091H29.7195L30.5774 3.63636H31.4553L32.3075 6.8267H32.3501L33.1996 3.63636H34.0774L32.7962 8H31.9297L31.0433 4.84943H30.978L30.0916 8H29.228ZM36.6314 8.08807C36.2015 8.08807 35.8312 7.99621 35.5206 7.8125C35.2119 7.62689 34.9732 7.36648 34.8047 7.03125C34.638 6.69413 34.5547 6.29924 34.5547 5.84659C34.5547 5.39962 34.638 5.00568 34.8047 4.66477C34.9732 4.32386 35.2081 4.05777 35.5092 3.86648C35.8123 3.67519 36.1664 3.57955 36.5717 3.57955C36.8179 3.57955 37.0566 3.62027 37.2876 3.7017C37.5187 3.78314 37.7261 3.91098 37.9098 4.08523C38.0935 4.25947 38.2384 4.4858 38.3445 4.7642C38.4505 5.04072 38.5036 5.37689 38.5036 5.77273V6.07386H35.0348V5.4375H37.6712C37.6712 5.21402 37.6257 5.0161 37.5348 4.84375C37.4439 4.66951 37.3161 4.5322 37.1513 4.43182C36.9884 4.33144 36.7971 4.28125 36.5774 4.28125C36.3388 4.28125 36.1304 4.33996 35.9524 4.45739C35.7763 4.57292 35.6399 4.72443 35.5433 4.91193C35.4486 5.09754 35.4013 5.29924 35.4013 5.51705V6.0142C35.4013 6.30587 35.4524 6.55398 35.5547 6.75852C35.6589 6.96307 35.8037 7.11932 35.9893 7.22727C36.175 7.33333 36.3918 7.38636 36.6399 7.38636C36.8009 7.38636 36.9477 7.36364 37.0803 7.31818C37.2128 7.27083 37.3274 7.20076 37.424 7.10795C37.5206 7.01515 37.5945 6.90057 37.6456 6.7642L38.4496 6.90909C38.3852 7.14583 38.2696 7.35322 38.103 7.53125C37.9382 7.70739 37.7308 7.8447 37.4808 7.94318C37.2327 8.03977 36.9496 8.08807 36.6314 8.08807ZM39.446 8V3.63636H40.267V4.32955H40.3125C40.392 4.0947 40.5322 3.91004 40.733 3.77557C40.9356 3.6392 41.1648 3.57102 41.4205 3.57102C41.4735 3.57102 41.536 3.57292 41.608 3.5767C41.6818 3.58049 41.7396 3.58523 41.7812 3.59091V4.40341C41.7472 4.39394 41.6866 4.38352 41.5994 4.37216C41.5123 4.3589 41.4252 4.35227 41.3381 4.35227C41.1373 4.35227 40.9583 4.39489 40.8011 4.48011C40.6458 4.56345 40.5227 4.67992 40.4318 4.82955C40.3409 4.97727 40.2955 5.14583 40.2955 5.33523V8H39.446ZM44.2408 8.08807C43.8108 8.08807 43.4406 7.99621 43.13 7.8125C42.8213 7.62689 42.5826 7.36648 42.4141 7.03125C42.2474 6.69413 42.1641 6.29924 42.1641 5.84659C42.1641 5.39962 42.2474 5.00568 42.4141 4.66477C42.5826 4.32386 42.8175 4.05777 43.1186 3.86648C43.4216 3.67519 43.7758 3.57955 44.1811 3.57955C44.4273 3.57955 44.666 3.62027 44.897 3.7017C45.1281 3.78314 45.3355 3.91098 45.5192 4.08523C45.7029 4.25947 45.8478 4.4858 45.9538 4.7642C46.0599 5.04072 46.1129 5.37689 46.1129 5.77273V6.07386H42.6442V5.4375H45.2805C45.2805 5.21402 45.2351 5.0161 45.1442 4.84375C45.0533 4.66951 44.9254 4.5322 44.7607 4.43182C44.5978 4.33144 44.4065 4.28125 44.1868 4.28125C43.9482 4.28125 43.7398 4.33996 43.5618 4.45739C43.3857 4.57292 43.2493 4.72443 43.1527 4.91193C43.058 5.09754 43.0107 5.29924 43.0107 5.51705V6.0142C43.0107 6.30587 43.0618 6.55398 43.1641 6.75852C43.2682 6.96307 43.4131 7.11932 43.5987 7.22727C43.7843 7.33333 44.0012 7.38636 44.2493 7.38636C44.4103 7.38636 44.5571 7.36364 44.6896 7.31818C44.8222 7.27083 44.9368 7.20076 45.0334 7.10795C45.13 7.01515 45.2038 6.90057 45.255 6.7642L46.0589 6.90909C45.9946 7.14583 45.879 7.35322 45.7124 7.53125C45.5476 7.70739 45.3402 7.8447 45.0902 7.94318C44.8421 8.03977 44.5589 8.08807 44.2408 8.08807ZM48.6889 8.08523C48.3366 8.08523 48.0223 7.99527 47.7457 7.81534C47.4711 7.63352 47.2552 7.375 47.098 7.03977C46.9427 6.70265 46.8651 6.2983 46.8651 5.8267C46.8651 5.35511 46.9437 4.9517 47.1009 4.61648C47.2599 4.28125 47.4777 4.02462 47.7543 3.84659C48.0308 3.66856 48.3442 3.57955 48.6946 3.57955C48.9654 3.57955 49.1832 3.625 49.348 3.71591C49.5147 3.80492 49.6435 3.90909 49.7344 4.02841C49.8272 4.14773 49.8991 4.25284 49.9503 4.34375H50.0014V2.18182H50.8509V8H50.0213V7.32102H49.9503C49.8991 7.41383 49.8253 7.51989 49.7287 7.6392C49.634 7.75852 49.5033 7.86269 49.3366 7.9517C49.17 8.04072 48.9541 8.08523 48.6889 8.08523ZM48.8764 7.3608C49.1207 7.3608 49.3272 7.2964 49.4957 7.16761C49.6662 7.03693 49.795 6.85606 49.8821 6.625C49.9711 6.39394 50.0156 6.125 50.0156 5.81818C50.0156 5.51515 49.9721 5.25 49.8849 5.02273C49.7978 4.79545 49.67 4.61837 49.5014 4.49148C49.3329 4.36458 49.1245 4.30114 48.8764 4.30114C48.6207 4.30114 48.4077 4.36742 48.2372 4.5C48.0668 4.63258 47.938 4.81345 47.8509 5.04261C47.7656 5.27178 47.723 5.5303 47.723 5.81818C47.723 6.10985 47.7666 6.37216 47.8537 6.60511C47.9408 6.83807 48.0696 7.02273 48.2401 7.15909C48.4124 7.29356 48.6245 7.3608 48.8764 7.3608ZM54.2486 8V2.18182H55.098V4.34375H55.1491C55.1984 4.25284 55.2694 4.14773 55.3622 4.02841C55.455 3.90909 55.5838 3.80492 55.7486 3.71591C55.9134 3.625 56.1312 3.57955 56.402 3.57955C56.7543 3.57955 57.0687 3.66856 57.3452 3.84659C57.6217 4.02462 57.8385 4.28125 57.9957 4.61648C58.1548 4.9517 58.2344 5.35511 58.2344 5.8267C58.2344 6.2983 58.1558 6.70265 57.9986 7.03977C57.8414 7.375 57.6255 7.63352 57.3509 7.81534C57.0762 7.99527 56.7628 8.08523 56.4105 8.08523C56.1454 8.08523 55.9285 8.04072 55.7599 7.9517C55.5933 7.86269 55.4626 7.75852 55.3679 7.6392C55.2732 7.51989 55.2003 7.41383 55.1491 7.32102H55.0781V8H54.2486ZM55.081 5.81818C55.081 6.125 55.1255 6.39394 55.2145 6.625C55.3035 6.85606 55.4323 7.03693 55.6009 7.16761C55.7694 7.2964 55.9759 7.3608 56.2202 7.3608C56.474 7.3608 56.6861 7.29356 56.8565 7.15909C57.027 7.02273 57.1558 6.83807 57.2429 6.60511C57.3319 6.37216 57.3764 6.10985 57.3764 5.81818C57.3764 5.5303 57.3329 5.27178 57.2457 5.04261C57.1605 4.81345 57.0317 4.63258 56.8594 4.5C56.6889 4.36742 56.4759 4.30114 56.2202 4.30114C55.974 4.30114 55.7656 4.36458 55.5952 4.49148C55.4266 4.61837 55.2988 4.79545 55.2116 5.02273C55.1245 5.25 55.081 5.51515 55.081 5.81818ZM59.5767 9.63636C59.4498 9.63636 59.3343 9.62595 59.2301 9.60511C59.1259 9.58617 59.0483 9.56534 58.9972 9.54261L59.2017 8.84659C59.357 8.88826 59.4953 8.90625 59.6165 8.90057C59.7377 8.89489 59.8447 8.84943 59.9375 8.7642C60.0322 8.67898 60.1155 8.53977 60.1875 8.34659L60.2926 8.05682L58.696 3.63636H59.6051L60.7102 7.02273H60.7557L61.8608 3.63636H62.7727L60.9744 8.58239C60.8911 8.80966 60.785 9.00189 60.6562 9.15909C60.5275 9.31818 60.3741 9.4375 60.196 9.51705C60.018 9.59659 59.8116 9.63636 59.5767 9.63636Z" fill="#F2F2F2"/>
<g clip-path="url(#clip0_361_1088)">
<path d="M8.95477 28.7123C8.28427 28.7123 7.76114 28.5268 7.38427 28.157C7.00739 27.7871 6.81952 27.2921 6.81952 26.6707V18.9743C6.81952 18.6398 6.77227 18.3211 6.67889 18.0161C6.58439 17.7123 6.42014 17.4676 6.18502 17.2821C5.94989 17.0966 5.60902 17.0044 5.16127 17.0044C4.77314 17.0044 4.45252 17.0966 4.19939 17.281C3.94627 17.4653 3.76064 17.7248 3.64364 18.0571C3.52552 18.3905 3.46139 18.7706 3.44902 19.1997V19.45H5.14327V20.9488H3.45014V28.5337H1.50952V20.9488H0.275391V19.45H1.51064V18.8969C1.51064 18.147 1.65127 17.5074 1.93364 16.9782C2.21602 16.4491 2.62777 16.0417 3.16889 15.756C3.71002 15.4704 4.36252 15.3281 5.12752 15.3281C6.35039 15.3281 7.26277 15.6251 7.86239 16.2203C8.46202 16.8155 8.76239 17.5951 8.76239 18.5578V25.8218C8.76239 26.2622 8.82989 26.5569 8.96489 26.7049C9.09989 26.854 9.27314 26.9279 9.48577 26.9279C9.72089 26.9279 9.95039 26.8949 10.1743 26.8301C10.3981 26.7652 10.5736 26.7083 10.7041 26.6605L10.9865 28.2753C10.8571 28.3356 10.6715 28.3971 10.4308 28.4574C10.19 28.5177 9.94252 28.5758 9.68939 28.6304C9.43402 28.685 9.18989 28.7123 8.95477 28.7123Z" fill="#FAFDFF"/>
<path d="M11.2686 24.9399V19.2715H13.2092V24.5416C13.2092 25.3667 13.3588 25.9892 13.6592 26.408C13.9596 26.8268 14.3972 27.0362 14.9732 27.0362C15.3377 27.0362 15.6932 26.9599 16.0408 26.8074C16.3873 26.6549 16.7057 26.4285 16.9937 26.1292C17.2817 25.8299 17.5146 25.4691 17.6912 25.0469V19.2715H19.6318V26.3272C19.6318 26.54 19.6734 26.6959 19.7556 26.796C19.8377 26.8962 19.9727 26.952 20.1617 26.9645V28.5349C19.9614 28.5702 19.7938 28.5918 19.6588 28.5975C19.5238 28.6032 19.4091 28.6123 19.3146 28.6248C18.9501 28.6123 18.6497 28.5122 18.4146 28.3233C18.1794 28.1344 18.0444 27.8863 18.0084 27.579L17.9736 26.6766C17.5731 27.3264 17.0409 27.8282 16.3772 28.1822C15.7123 28.5361 14.9867 28.7136 14.1981 28.7136C13.2339 28.7136 12.5049 28.395 12.0099 27.7577C11.5161 27.1181 11.2686 26.1792 11.2686 24.9399Z" fill="#FAFDFF"/>
<path d="M21.6104 17.6658V15.5059H23.551V17.6658H21.6104ZM21.6104 28.5339V19.1999H23.551V28.5339H21.6104Z" fill="#FAFDFF"/>
<path d="M24.8867 23.9204C24.8867 23.0361 25.0656 22.2315 25.4245 21.5066C25.7833 20.7817 26.2738 20.2036 26.8971 19.7734C27.5203 19.3432 28.2381 19.1282 29.0492 19.1282C29.767 19.1282 30.4105 19.3125 30.9808 19.6812C31.5512 20.05 31.9888 20.5018 32.2948 21.0378V15.5059H34.2355V26.3204C34.2355 26.5344 34.2771 26.6926 34.3592 26.7938C34.4413 26.8951 34.5763 26.952 34.7653 26.9634V28.5339C34.4121 28.593 34.1297 28.6295 33.9182 28.6408C33.5537 28.6408 33.2477 28.5305 33.0002 28.3108C32.7527 28.0912 32.6177 27.8317 32.5941 27.5347L32.5761 26.8564C32.2116 27.4391 31.7323 27.8943 31.1383 28.2221C30.5443 28.5487 29.9233 28.7125 29.2776 28.7125C28.642 28.7125 28.057 28.5851 27.5226 28.3324C26.9871 28.0787 26.5225 27.7316 26.1287 27.2889C25.735 26.8473 25.429 26.3398 25.2107 25.7685C24.9958 25.1972 24.8867 24.5804 24.8867 23.9204ZM32.2971 25.2052V22.7949C32.1677 22.4193 31.9585 22.0859 31.6705 21.7923C31.3825 21.4987 31.0585 21.2608 30.6996 21.0799C30.3407 20.8978 29.9785 20.8067 29.6151 20.8067C29.2146 20.8067 28.8478 20.8944 28.5126 21.0708C28.1773 21.2472 27.8893 21.4782 27.6486 21.7661C27.4078 22.054 27.2222 22.3874 27.0928 22.7687C26.9635 23.1499 26.8993 23.5459 26.8993 23.9556C26.8993 24.3665 26.9702 24.7591 27.1108 25.1346C27.2515 25.5102 27.4551 25.8413 27.7195 26.1292C27.9838 26.416 28.2898 26.6391 28.6375 26.7973C28.984 26.9554 29.3631 27.0351 29.7748 27.0351C30.0336 27.0351 30.2957 26.9919 30.5601 26.9031C30.8245 26.8155 31.0742 26.6891 31.3105 26.5253C31.5456 26.3614 31.7515 26.1645 31.9281 25.9358C32.1025 25.707 32.2262 25.4635 32.2971 25.2052Z" fill="#FAFDFF"/>
<path d="M42.6375 28.5339L39.6731 24.2754L38.1555 25.7127V28.5339H36.2148V15.5059H38.1555V23.7428L42.4248 19.2716H44.5061L40.9421 23.1579L44.7176 28.535H42.6375V28.5339Z" fill="#FAFDFF"/>
<path d="M49.1514 28.7123C48.4224 28.7123 47.7687 28.5848 47.1927 28.3311C46.6167 28.0773 46.1161 27.7291 45.6931 27.2864C45.2701 26.8437 44.9427 26.3361 44.7144 25.7626C44.4849 25.1901 44.3701 24.5847 44.3701 23.9474C44.3701 23.0655 44.5704 22.2586 44.9697 21.5291C45.3691 20.7997 45.9316 20.217 46.655 19.7812C47.3784 19.3453 48.2109 19.1279 49.1514 19.1279C50.1279 19.1279 50.966 19.3487 51.6657 19.7903C52.3655 20.2318 52.91 20.8122 53.2981 21.5303C53.6862 22.2484 53.8797 23.0199 53.8797 23.845C53.8797 23.9873 53.8741 24.1193 53.8617 24.2433C53.8494 24.3674 53.8381 24.4641 53.8269 24.5346H46.4176C46.4761 25.0866 46.6347 25.5657 46.8935 25.9708C47.1522 26.376 47.4875 26.6935 47.8992 26.9222C48.311 27.1509 48.7464 27.2659 49.2042 27.2659C49.7341 27.2659 50.2302 27.135 50.6949 26.8733C51.1595 26.6115 51.4734 26.2667 51.6387 25.8377L53.297 26.3191C53.0967 26.7708 52.7907 27.1783 52.379 27.5413C51.9672 27.9043 51.488 28.19 50.9412 28.3982C50.3945 28.6076 49.7971 28.7123 49.1514 28.7123ZM46.3805 23.251H51.956C51.9087 22.715 51.7591 22.2484 51.506 21.8512C51.2529 21.4552 50.921 21.1422 50.5092 20.9146C50.0975 20.687 49.6509 20.5732 49.1682 20.5732C48.6744 20.5732 48.2244 20.687 47.8182 20.9146C47.4121 21.1422 47.0802 21.454 46.8215 21.8512C46.5627 22.2484 46.4165 22.715 46.3805 23.251Z" fill="#FAFDFF"/>
<path d="M55.0143 30.729C55.1909 30.7529 55.3641 30.7791 55.5351 30.8098C55.705 30.8394 55.8445 30.8485 55.9503 30.836C56.1505 30.8474 56.3238 30.795 56.4711 30.6767C56.6185 30.5583 56.7681 30.3307 56.9211 29.9961C57.0741 29.6604 57.2564 29.1802 57.4679 28.5554L53.6924 19.2715H55.7219L58.5445 26.5673L61.0499 19.2715H62.9376L58.7391 30.7029C58.621 31.0579 58.4365 31.3766 58.1834 31.6611C57.9303 31.9444 57.6186 32.1698 57.2485 32.3359C56.8784 32.5021 56.452 32.5783 55.9694 32.5669C55.8288 32.5783 55.6814 32.5726 55.5284 32.5487C55.3754 32.5248 55.2044 32.4895 55.0165 32.4417V30.729H55.0143Z" fill="#FAFDFF"/>
</g>
<defs>
<clipPath id="clip0_361_1088">
<rect width="63" height="18" fill="white" transform="translate(0 15)"/>
</clipPath>
</defs>
</svg>
